# xmcd
#
# Track frame offsets:
#	150
#	18510
#	33378
#	47872
#	60174
#	72402
#	85635
#	99694
#	114374
#	131458
#	150719
#	167008
#	181109
#	199266
#	215447
#	230749
#
# Disc length: 3271 seconds
#
# Revision: 0
# Processed by: cddbd v1.5.1PL0 Copyright (c) Steve Scherf et al.
# Submitted via: dBpowerAMP V4.0
#
DISCID=d30cc510
DTITLE=Gilbert - Du mein kleiner Freund
DYEAR=2002
DGENRE=Vocal
TTITLE0=Du mein kleiner Freund
TTITLE1=Mein Engel
TTITLE2=Irgendwie
TTITLE3=Einsame Wölfe
TTITLE4=Nur noch dich
TTITLE5=Im Dunkel der Nacht
TTITLE6=A G'fühl zum glücklich sein
TTITLE7=Feuervogel
TTITLE8=Wo ich hin will, was ich tue
TTITLE9=Für Josie
TTITLE10=Wir seh'n uns mal im Himmel
TTITLE11=Träume
TTITLE12=Sieben dunkle Meere
TTITLE13=Mein Wunsch ist Freiden auf der Welt
TTITLE14=Ich will lachen
TTITLE15=Wenn die Nacht die Sterne
EXTD=
EXTT0=
EXTT1=
EXTT2=
EXTT3=
EXTT4=
EXTT5=
EXTT6=
EXTT7=
EXTT8=
EXTT9=
EXTT10=
EXTT11=
EXTT12=
EXTT13=
EXTT14=
EXTT15=
PLAYORDER=
